<svg width="32" height="36" viewBox="0 0 32 36" fill="none" xmlns="http://www.w3.org/2000/svg">
<path fill-rule="evenodd" clip-rule="evenodd" d="M20.6798 3.01418L21.0803 2.42542L21.4808 1.84567L22.3726 0.541421C22.4253 0.464788 22.4445 0.36989 22.4255 0.278793C22.4065 0.187695 22.3511 0.108337 22.272 0.0591696C22.1085 -0.0485656 21.8888 -0.0051567 21.7785 0.15667L20.4173 2.13967L20.0085 2.73668C18.6466 2.22789 17.2039 1.96973 15.75 1.97467C14.2962 1.96992 12.8535 2.22807 11.4915 2.73668L11.085 2.13967L10.683 1.55317L9.72602 0.15667C9.61293 -0.00396366 9.39334 -0.0469546 9.22802 0.0591696C9.14986 0.109052 9.09512 0.188356 9.07621 0.279129C9.05729 0.369903 9.07579 0.464469 9.12752 0.541421L10.02 1.84567L10.4198 2.42542L10.8218 3.01418C7.78427 4.39193 5.72851 7.00194 5.72851 9.98844H25.7716C25.7716 7.00194 23.7166 4.39193 20.6805 3.01343L20.6798 3.01418ZM10.3808 6.15518C10.3808 6.73268 10.8608 7.19994 11.4548 7.19994V7.20069C12.0488 7.20069 12.5288 6.73268 12.5288 6.15518C12.5288 5.57693 12.0488 5.11118 11.4548 5.11118C10.8608 5.11118 10.3808 5.57768 10.3808 6.15518ZM18.9713 6.15518C18.9713 6.73268 19.4513 7.19994 20.0453 7.19994V7.20069C20.6393 7.20069 21.1193 6.73268 21.1193 6.15518C21.1193 5.57693 20.6393 5.11118 20.0453 5.11118C19.4513 5.11118 18.9713 5.57768 18.9713 6.15518ZM5.72851 11.3812H5.88226H5.88301H25.7716V26.7097C25.7716 27.9277 24.7583 28.9177 23.5058 28.9177H21.8678C21.924 29.1015 21.9571 29.295 21.9571 29.4975V33.9105C21.9571 35.0647 20.9933 36 19.806 36C18.621 36 17.6595 35.0647 17.6595 33.9105V29.4975C17.6597 29.3012 17.6882 29.1059 17.7443 28.9177H13.7558C13.8098 29.1015 13.8428 29.295 13.8428 29.4975V33.9105C13.8428 35.0647 12.879 36 11.694 36C10.509 36 9.54527 35.0647 9.54527 33.9105V29.4975C9.54507 29.301 9.5744 29.1055 9.63227 28.9177H7.99652C6.74402 28.9177 5.72851 27.927 5.72851 26.7097V11.3812ZM2.14875 11.3812C0.961502 11.3812 0 12.3164 0 13.4699V22.413C0 23.5665 0.961502 24.5025 2.14875 24.5025C3.33376 24.5025 4.29526 23.5665 4.29526 22.413V13.4699C4.29526 12.3164 3.33376 11.3812 2.14875 11.3812ZM27.2048 13.4699C27.2048 12.3164 28.1663 11.3812 29.3536 11.3812C30.5386 11.3812 31.5001 12.3164 31.5001 13.4699V22.413C31.5001 23.5665 30.5386 24.5025 29.3536 24.5025C28.1663 24.5025 27.2048 23.5665 27.2048 22.413V13.4699Z" fill="#7DCF00"/>
</svg>
