<svg width="10" height="18" viewBox="0 0 10 18" fill="none" xmlns="http://www.w3.org/2000/svg">
<path d="M0.171342 8.17627L8.17867 0.171888C8.29326 0.0574565 8.42512 0 8.57396 0C8.72285 0 8.85465 0.0574565 8.96918 0.171888L9.82818 1.03079C9.94289 1.14528 10 1.2768 10 1.42588C10 1.57497 9.94289 1.70649 9.82818 1.82098L3.07537 8.57161L9.82818 15.3224C9.94289 15.4368 10 15.5686 10 15.7173C10 15.8663 9.94289 15.9981 9.82818 16.1126L8.96912 16.9711C8.85459 17.0858 8.72279 17.1429 8.5739 17.1429C8.42506 17.1429 8.29326 17.0856 8.17867 16.9711L0.171763 8.96671C0.0572948 8.85227 0 8.72046 0 8.57161C0 8.42276 0.0568733 8.29101 0.171342 8.17627Z" fill="#ADB1B5"/>
</svg>
