<svg width="68" height="68" viewBox="0 0 68 68" fill="none" xmlns="http://www.w3.org/2000/svg">
<path fill-rule="evenodd" clip-rule="evenodd" d="M56.2618 34C56.2618 46.295 46.2948 56.262 33.9998 56.262C21.7048 56.262 11.7378 46.295 11.7378 34C11.7378 21.705 21.7048 11.738 33.9998 11.738C46.2948 11.738 56.2618 21.705 56.2618 34Z" fill="#237BD3"/>
<path fill-rule="evenodd" clip-rule="evenodd" d="M33.9995 6.65771C18.9225 6.65771 6.65747 18.9237 6.65747 34.0007C6.65747 49.0767 18.9225 61.3427 33.9995 61.3427C49.0765 61.3427 61.3425 49.0767 61.3425 34.0007C61.3425 18.9237 49.0765 6.65771 33.9995 6.65771ZM33.9995 63.4727C17.7485 63.4727 4.52747 50.2507 4.52747 34.0007C4.52747 17.7487 17.7485 4.52771 33.9995 4.52771C50.2515 4.52771 63.4725 17.7487 63.4725 34.0007C63.4725 50.2507 50.2515 63.4727 33.9995 63.4727Z" fill="#237BD3"/>
<path fill-rule="evenodd" clip-rule="evenodd" d="M34.0054 34.0425C33.9904 34.0145 33.9744 33.9855 33.9594 33.9575C33.9864 33.9745 34.0134 33.9905 34.0404 34.0075L34.0054 34.0425Z" fill="#5FD6F8"/>
<path fill-rule="evenodd" clip-rule="evenodd" d="M34.0408 33.9926C34.0138 34.0096 33.9868 34.0256 33.9588 34.0426C33.9748 34.0146 33.9898 33.9856 34.0058 33.9576C34.0048 33.9576 34.0408 33.9926 34.0408 33.9926Z" fill="#5FD6F8"/>
<path fill-rule="evenodd" clip-rule="evenodd" d="M54.0894 34C54.0894 45.095 45.0954 54.089 34.0004 54.089C22.9054 54.089 13.9104 45.095 13.9104 34C13.9104 22.905 22.9054 13.911 34.0004 13.911C45.0954 13.911 54.0894 22.905 54.0894 34Z" fill="#7ED3ED"/>
<path fill-rule="evenodd" clip-rule="evenodd" d="M43.0704 32.9974C41.8414 32.9804 40.6124 32.9914 39.3824 32.9914C38.1324 32.9914 36.8814 32.9824 35.6314 32.9964C35.2724 33.0004 35.0904 32.9244 35.0944 32.5094C35.1124 30.7504 35.1094 28.9914 35.0964 27.2324C35.0934 26.8734 35.2214 26.7534 35.5754 26.7494C37.8514 26.7224 40.0664 26.3074 42.2404 25.6594C42.6554 25.5354 42.8464 25.6094 42.9334 26.0704C43.3314 28.1904 43.4764 30.3364 43.6354 32.4824C43.6684 32.9354 43.4534 33.0024 43.0704 32.9974ZM43.5064 37.4494C43.3834 38.9414 43.1874 40.4254 42.9404 41.9024C42.8594 42.3864 42.6604 42.4664 42.2064 42.3314C40.0534 41.6914 37.8584 41.2764 35.6044 41.2524C35.2174 41.2484 35.0924 41.1174 35.0954 40.7334C35.1114 38.9964 35.1154 37.2574 35.0934 35.5204C35.0874 35.0704 35.2814 34.9974 35.6654 35.0034C36.8944 35.0204 38.1244 35.0094 39.3534 35.0094C40.6034 35.0094 41.8544 35.0244 43.1044 35.0014C43.5314 34.9924 43.6704 35.1444 43.6334 35.5534C43.5774 36.1844 43.5584 36.8184 43.5064 37.4494ZM32.9044 40.7334C32.9074 41.1174 32.7824 41.2484 32.3954 41.2524C30.1414 41.2764 27.9464 41.6914 25.7934 42.3314C25.3394 42.4664 25.1404 42.3864 25.0594 41.9024C24.8124 40.4254 24.6174 38.9414 24.4934 37.4494C24.4414 36.8184 24.4224 36.1844 24.3664 35.5534C24.3294 35.1444 24.4684 34.9924 24.8954 35.0014C26.1454 35.0244 27.3964 35.0094 28.6464 35.0094C29.8764 35.0094 31.1054 35.0204 32.3344 35.0034C32.7184 34.9974 32.9124 35.0704 32.9064 35.5204C32.8844 37.2574 32.8894 38.9964 32.9044 40.7334ZM25.0664 26.0704C25.1534 25.6094 25.3444 25.5354 25.7604 25.6594C27.9344 26.3074 30.1494 26.7224 32.4244 26.7494C32.7784 26.7534 32.9064 26.8734 32.9034 27.2324C32.8904 28.9914 32.8874 30.7504 32.9054 32.5094C32.9094 32.9244 32.7274 33.0004 32.3684 32.9964C31.1184 32.9824 29.8674 32.9914 28.6174 32.9914C27.3884 32.9914 26.1584 32.9804 24.9294 32.9974C24.5464 33.0024 24.3314 32.9354 24.3644 32.4824C24.5234 30.3364 24.6684 28.1904 25.0664 26.0704ZM44.8014 42.6404C45.2574 40.3154 45.5214 37.9684 45.5374 35.5994C45.5404 35.1134 45.6984 34.9964 46.1614 34.9994C48.7954 35.0164 51.4304 35.0064 54.0634 35.0044C54.0804 34.6714 54.0894 34.3364 54.0894 34.0004C54.0894 33.6634 54.0804 33.3284 54.0634 32.9964C51.4294 32.9944 48.7954 32.9884 46.1614 32.9964C45.7704 32.9974 45.5194 32.9624 45.5394 32.4644C45.5704 31.7044 45.4944 30.9464 45.4384 30.1864C45.3214 28.6054 45.1364 27.0354 44.8274 25.4834C44.7274 24.9774 44.8714 24.7484 45.3194 24.5684C47.0094 23.8854 48.5824 22.9854 50.0894 21.9684C49.6924 21.4394 49.2694 20.9304 48.8234 20.4434C47.5644 21.2864 46.2594 22.0444 44.8654 22.6554C44.3634 22.8754 44.1884 22.7454 44.0714 22.2664C43.8264 21.2604 43.4724 20.2874 43.1134 19.3164C42.5764 17.8624 41.8304 16.5164 41.0514 15.1864C40.0174 14.7984 38.9444 14.4954 37.8384 14.2814C37.8584 14.3014 37.8794 14.3224 37.8984 14.3434C40.1864 16.8794 41.4074 19.9414 42.2694 23.1834C42.3434 23.4634 42.3304 23.6024 42.0214 23.6964C39.9924 24.3124 37.9134 24.6384 35.8084 24.8384C35.2584 24.8914 35.0834 24.7354 35.0884 24.1554C35.1144 20.7514 35.0994 17.3464 35.0974 13.9414C34.7334 13.9224 34.3684 13.9104 34.0004 13.9104C33.6314 13.9104 33.2664 13.9224 32.9024 13.9414C32.9004 17.3464 32.8864 20.7514 32.9124 24.1554C32.9164 24.7354 32.7414 24.8914 32.1914 24.8384C30.0864 24.6384 28.0074 24.3124 25.9784 23.6964C25.6694 23.6024 25.6564 23.4634 25.7304 23.1834C26.5924 19.9414 27.8134 16.8794 30.1014 14.3434C30.1204 14.3224 30.1414 14.3014 30.1614 14.2814C29.0554 14.4954 27.9824 14.7984 26.9494 15.1864C26.1704 16.5164 25.4234 17.8624 24.8864 19.3164C24.5274 20.2874 24.1744 21.2604 23.9284 22.2664C23.8114 22.7454 23.6364 22.8754 23.1344 22.6554C21.7404 22.0444 20.4354 21.2864 19.1764 20.4434C18.7304 20.9304 18.3074 21.4394 17.9104 21.9684C19.4174 22.9854 20.9904 23.8854 22.6804 24.5684C23.1294 24.7484 23.2734 24.9774 23.1724 25.4834C22.8634 27.0354 22.6794 28.6054 22.5624 30.1864C22.5054 30.9464 22.4294 31.7044 22.4604 32.4644C22.4804 32.9624 22.2294 32.9974 21.8384 32.9964C19.2044 32.9884 16.5704 32.9944 13.9364 32.9964C13.9194 33.3284 13.9104 33.6634 13.9104 34.0004C13.9104 34.3364 13.9194 34.6714 13.9364 35.0044C16.5704 35.0064 19.2044 35.0164 21.8384 34.9994C22.3014 34.9964 22.4594 35.1134 22.4624 35.5994C22.4784 37.9684 22.7424 40.3154 23.1984 42.6404C23.2724 43.0154 23.1534 43.2304 22.7944 43.3764C21.0664 44.0774 19.4534 44.9914 17.9114 46.0314C18.3074 46.5604 18.7294 47.0684 19.1744 47.5554C20.4444 46.6874 21.7734 45.9254 23.1954 45.3274C23.5064 45.1964 23.7494 45.1074 23.8664 45.5544C24.5414 48.1264 25.5744 50.5454 26.9514 52.8154C27.9764 53.1994 29.0404 53.5014 30.1374 53.7144C29.8004 53.2284 29.3544 52.8274 29.0164 52.3404C27.4064 50.0324 26.4454 47.4434 25.6824 44.7644C25.5914 44.4444 25.7764 44.3594 26.0284 44.2874C27.3304 43.9184 28.6414 43.5954 29.9844 43.4184C30.7164 43.3224 31.4524 43.2624 32.1844 43.1644C32.7204 43.0924 32.9174 43.2464 32.9124 43.8384C32.8854 47.2444 32.9004 50.6514 32.9034 54.0584C33.2664 54.0784 33.6314 54.0894 34.0004 54.0894C34.3684 54.0894 34.7334 54.0784 35.0964 54.0584C35.0994 50.6514 35.1144 47.2444 35.0874 43.8384C35.0834 43.2464 35.2794 43.0924 35.8154 43.1644C36.5474 43.2624 37.2844 43.3224 38.0154 43.4184C39.3584 43.5954 40.6694 43.9184 41.9714 44.2874C42.2234 44.3594 42.4084 44.4444 42.3174 44.7644C41.5544 47.4434 40.5934 50.0324 38.9844 52.3404C38.6454 52.8274 38.1994 53.2284 37.8624 53.7144C38.9594 53.5014 40.0234 53.1994 41.0484 52.8144C42.4264 50.5454 43.4584 48.1264 44.1344 45.5544C44.2514 45.1074 44.4944 45.1964 44.8044 45.3274C46.2264 45.9254 47.5554 46.6874 48.8254 47.5554C49.2704 47.0684 49.6934 46.5604 50.0894 46.0314C48.5464 44.9914 46.9334 44.0774 45.2054 43.3764C44.8464 43.2304 44.7274 43.0154 44.8014 42.6404Z" fill="#237BD3"/>
<path fill-rule="evenodd" clip-rule="evenodd" d="M38.4089 4.409C38.4089 6.844 36.4349 8.818 33.9999 8.818C31.5649 8.818 29.5909 6.844 29.5909 4.409C29.5909 1.974 31.5649 0 33.9999 0C36.4349 0 38.4089 1.974 38.4089 4.409Z" fill="#FE825D"/>
<path fill-rule="evenodd" clip-rule="evenodd" d="M38.4089 63.591C38.4089 66.026 36.4349 68 33.9999 68C31.5649 68 29.5909 66.026 29.5909 63.591C29.5909 61.156 31.5649 59.182 33.9999 59.182C36.4349 59.182 38.4089 61.156 38.4089 63.591Z" fill="#FE825D"/>
<path fill-rule="evenodd" clip-rule="evenodd" d="M63.591 38.409C61.156 38.409 59.182 36.435 59.182 34C59.182 31.565 61.156 29.591 63.591 29.591C66.026 29.591 68 31.565 68 34C68 36.435 66.026 38.409 63.591 38.409Z" fill="#FE825D"/>
<path fill-rule="evenodd" clip-rule="evenodd" d="M4.409 38.409C1.974 38.409 0 36.435 0 34C0 31.565 1.974 29.591 4.409 29.591C6.844 29.591 8.818 31.565 8.818 34C8.818 36.435 6.844 38.409 4.409 38.409Z" fill="#FE825D"/>
</svg>
