<svg width="51" height="60" viewBox="0 0 51 60" fill="none" xmlns="http://www.w3.org/2000/svg">
<mask id="mask0_0_976" style="mask-type:alpha" maskUnits="userSpaceOnUse" x="0" y="0" width="51" height="60">
<path fill-rule="evenodd" clip-rule="evenodd" d="M0 0H50.339V60H0V0Z" fill="white"/>
</mask>
<g mask="url(#mask0_0_976)">
<path fill-rule="evenodd" clip-rule="evenodd" d="M24.7392 0H25.6772C26.3142 0.467 26.9972 0.884 27.5822 1.41C30.9412 4.429 34.7862 6.528 39.1652 7.647C42.0392 8.381 44.9622 8.675 47.9222 8.698C49.4582 8.71 50.3142 9.513 50.3162 10.97C50.3222 16.127 50.3872 21.286 50.2672 26.44C50.1802 30.194 49.5712 33.9 48.5322 37.522C46.9532 43.024 44.2122 47.829 40.0122 51.765C35.9762 55.546 31.1942 58.03 26.0312 59.861C25.4332 60.073 24.8552 60.03 24.2642 59.819C20.9452 58.635 17.7622 57.173 14.8082 55.236C9.01023 51.435 4.92323 46.286 2.58823 39.752C0.773228 34.673 0.120228 29.391 0.0252284 24.042C-0.0507716 19.765 0.0662284 15.485 0.0972284 11.206C0.109228 9.492 0.879228 8.757 2.61123 8.682C4.30623 8.608 6.00823 8.535 7.69023 8.323C13.5762 7.58 18.7242 5.215 23.0942 1.173C23.5842 0.719 24.1882 0.388 24.7392 0" fill="#7ED3ED"/>
</g>
<path fill-rule="evenodd" clip-rule="evenodd" d="M24.7899 3.7937H25.6169C26.1799 4.2057 26.7819 4.5737 27.2979 5.0377C30.2619 7.7007 33.6529 9.5527 37.5169 10.5397C40.0529 11.1877 42.6309 11.4467 45.2419 11.4677C46.5979 11.4777 47.3529 12.1857 47.3539 13.4717C47.3599 18.0207 47.4169 22.5727 47.3119 27.1197C47.2349 30.4317 46.6979 33.7017 45.7809 36.8957C44.3879 41.7507 41.9699 45.9897 38.2639 49.4617C34.7039 52.7977 30.4849 54.9897 25.9299 56.6047C25.4019 56.7917 24.8929 56.7537 24.3709 56.5677C21.4419 55.5237 18.6349 54.2337 16.0279 52.5247C10.9129 49.1717 7.30687 44.6277 5.24787 38.8637C3.64687 34.3827 3.07087 29.7237 2.98687 25.0047C2.91987 21.2307 3.02287 17.4547 3.04987 13.6797C3.06087 12.1677 3.74087 11.5187 5.26787 11.4527C6.76387 11.3887 8.26487 11.3237 9.74887 11.1367C14.9409 10.4807 19.4839 8.3947 23.3389 4.8287C23.7709 4.4287 24.3039 4.1357 24.7899 3.7937" fill="#237BD3"/>
<mask id="mask1_0_976" style="mask-type:alpha" maskUnits="userSpaceOnUse" x="0" y="0" width="51" height="60">
<path fill-rule="evenodd" clip-rule="evenodd" d="M0 60H50.339V0H0V60Z" fill="white"/>
</mask>
<g mask="url(#mask1_0_976)">
<path fill-rule="evenodd" clip-rule="evenodd" d="M16.931 41.521H33.267V25.185H16.931V41.521Z" fill="#237BD3"/>
<path fill-rule="evenodd" clip-rule="evenodd" d="M28.887 33.919H31.592V28.509H28.887V33.919ZM23.477 31.214H26.182V28.509H23.477V31.214ZM23.477 39.329H26.182V33.919H23.477V39.329ZM18.067 33.919H20.772V28.509H18.067V33.919ZM28.887 39.329H31.592V36.624H28.887V39.329ZM18.067 39.329H20.772V36.624H18.067V39.329ZM35.636 19.041C35.636 17.547 34.439 16.336 32.944 16.336H22.124L14.009 24.451V40.682C14.009 42.176 15.219 43.387 16.714 43.387H32.958C34.452 43.387 35.649 42.176 35.649 40.682L35.636 19.041Z" fill="white"/>
</g>
</svg>
