<svg width="16" height="19" viewBox="0 0 16 19" fill="none" xmlns="http://www.w3.org/2000/svg">
<path fill-rule="evenodd" clip-rule="evenodd" d="M12.186 0.344907C12.2235 0.78123 12.3248 1.95937 11.0879 3.2522C10.192 4.17416 9.10399 4.71365 7.91088 4.63313C7.81031 3.52195 8.28115 2.53557 9.08113 1.73842C9.80797 0.99361 11.0834 0.389708 12.185 0.333344L12.186 0.344907ZM15.3039 6.52966C13.8939 7.38905 13.1974 8.55596 13.2058 10.102C13.2058 10.1042 13.2056 10.1082 13.2055 10.114C13.1999 10.3181 13.1339 12.7156 15.7949 13.9735C15.2829 15.5238 13.5289 18.9697 11.4895 18.9992C10.9181 18.9992 10.461 18.8222 9.98985 18.6397C9.48859 18.4455 8.97133 18.2452 8.2835 18.2452C7.53892 18.2452 6.97855 18.4584 6.45357 18.6582C6.0081 18.8278 5.58812 18.9876 5.1027 18.9992C3.08008 19.0624 1.14139 15.271 0.604267 13.7249C0.201422 12.5496 0 11.408 0 10.3042C0 6.56757 2.48841 4.73084 4.82994 4.69292C5.47909 4.69292 6.23018 4.96536 6.87169 5.19804C7.34984 5.37147 7.76711 5.52283 8.03591 5.52283C8.25326 5.52283 8.60795 5.39111 9.04317 5.2295C9.80112 4.94803 10.8033 4.57587 11.7496 4.6508C13.3233 4.77297 14.515 5.39644 15.3039 6.52966Z" fill="#202020"/>
</svg>
