<svg width="321" height="30" viewBox="0 0 321 30" fill="none" xmlns="http://www.w3.org/2000/svg">
<path fill-rule="evenodd" clip-rule="evenodd" d="M0 0V29.9998H29.9998L33.1869 24.0005H5.99996V6.00067H29.9998V0H0Z" fill="#006DB3"/>
<path fill-rule="evenodd" clip-rule="evenodd" d="M11.51 18.0001H37.3077V12.0001H11.51V18.0001Z" fill="#006DB3"/>
<path fill-rule="evenodd" clip-rule="evenodd" d="M63.9112 30H34.2014L37.3885 24.0001H63.9112C64.7548 24.0001 65.4655 23.7115 66.044 23.1329C66.6219 22.5551 66.9112 21.8437 66.9112 21.0001C66.9112 20.1565 66.6219 19.4458 66.044 18.8673C65.4655 18.2894 64.7548 18.0001 63.9112 18.0001H51.9113C49.4113 18.0001 47.2863 17.1258 45.5363 15.3751C43.7856 13.6251 42.9114 11.5009 42.9114 9.00018C42.9114 6.5002 43.7856 4.37593 45.5363 2.62523C47.2863 0.875238 49.4113 0.000244141 51.9113 0.000244141H69.9112V6.0002H51.9113C51.0677 6.0002 50.3563 6.28948 49.7784 6.86734C49.1999 7.44591 48.9113 8.15662 48.9113 9.00018C48.9113 9.84375 49.1999 10.5552 49.7784 11.133C50.3563 11.7116 51.0677 12.0002 51.9113 12.0002H63.9112C66.4105 12.0002 68.5355 12.8752 70.2862 14.6251C72.0354 16.3758 72.9111 18.5001 72.9111 21.0001C72.9111 23.5008 72.0354 25.6251 70.2862 27.375C68.5355 29.1257 66.4105 30 63.9112 30Z" fill="#D93832"/>
<mask id="mask0_0_896" style="mask-type:alpha" maskUnits="userSpaceOnUse" x="0" y="0" width="125" height="30">
<path fill-rule="evenodd" clip-rule="evenodd" d="M0 30H124.661V0.000244141H0V30Z" fill="white"/>
</mask>
<g mask="url(#mask0_0_896)">
<path fill-rule="evenodd" clip-rule="evenodd" d="M76.0051 30H82.0051V0.000244141H76.0051V30Z" fill="#D93832"/>
<path fill-rule="evenodd" clip-rule="evenodd" d="M94.6611 12.0003V30.0002H88.6611V0.000366211H94.6611L106.661 22.5002L118.661 0.000366211H124.661V30.0002H118.661V12.0003L109.661 30.0002H103.661L94.6611 12.0003Z" fill="#D93832"/>
</g>
<path fill-rule="evenodd" clip-rule="evenodd" d="M292.599 14.0521C292.37 13.0696 291.956 12.2434 291.334 11.5271L291.33 11.5217C290.479 10.5718 289.397 9.94038 288.018 9.59119C286.743 9.25559 284.864 9.09094 282.282 9.09094C279.465 9.09094 277.653 9.41974 276.365 9.90833C275.79 10.1162 275.17 10.5635 274.708 10.9948V10.0506H271.064V29.0909H274.725V16.9972C274.725 13.8398 277.958 12.5931 281.179 12.5931H282.794C286.016 12.5931 289.28 13.8398 289.28 16.9972V29.0909H292.892V18.7058C292.892 16.3483 292.801 14.9127 292.599 14.0521ZM276.358 9.91027C276.36 9.90979 276.362 9.90882 276.365 9.90833L276.366 9.90784L276.358 9.91027Z" fill="#EC1D24"/>
<mask id="mask1_0_896" style="mask-type:alpha" maskUnits="userSpaceOnUse" x="231" y="0" width="17" height="30">
<path fill-rule="evenodd" clip-rule="evenodd" d="M231.047 0.0821533H247.863V29.5253H231.047V0.0821533Z" fill="white"/>
</mask>
<g mask="url(#mask1_0_896)">
<path fill-rule="evenodd" clip-rule="evenodd" d="M231.047 9.2458H234.742C234.785 7.2722 234.851 5.39154 235.066 4.53433C235.238 3.68006 235.625 2.9522 236.182 2.39646C236.827 1.62826 237.728 1.07056 238.887 0.685474C240.004 0.385966 241.901 0.128753 244.392 0.0869493L247.863 0.0820312L244.523 3.32892C244.404 3.32892 243.225 3.33383 243.11 3.33383C238.197 3.33383 238.54 6.4681 238.54 9.2458H247.181L243.688 12.7902H238.455L238.474 29.5253H234.742V12.7902H231.047V9.2458Z" fill="#EC1D24"/>
</g>
<path fill-rule="evenodd" clip-rule="evenodd" d="M227.408 6.36366H231.046V2.72729H227.408V6.36366Z" fill="#EC1D24"/>
<path fill-rule="evenodd" clip-rule="evenodd" d="M194.473 15.0775C194.124 14.2379 193.52 13.6938 192.585 13.3729C191.616 13.065 189.912 12.8859 186.934 12.8433C183.956 12.8859 182.252 13.065 181.283 13.3729C180.349 13.6938 179.743 14.2379 179.395 15.0775C179.118 15.7208 178.804 17.2869 178.804 19.5455C178.804 21.804 179.118 23.3702 179.395 24.0135C179.743 24.8531 180.349 25.3967 181.283 25.718C182.252 26.027 183.956 26.2051 186.934 26.2477C189.912 26.2051 191.616 26.027 192.585 25.718C193.52 25.3967 194.124 24.8531 194.473 24.0135C194.751 23.3702 195.065 21.804 195.065 19.5455C195.065 17.2869 194.751 15.7208 194.473 15.0775ZM199.213 19.5455C199.213 21.8561 198.94 23.7576 198.4 25.1789C197.854 26.6598 195.989 30 186.934 30C177.88 30 176.014 26.6598 175.469 25.1789C174.93 23.7576 174.656 21.8561 174.656 19.5455C174.656 17.2339 174.93 15.3339 175.469 13.912C176.014 12.4306 177.88 9.09094 186.934 9.09094C195.989 9.09094 197.854 12.4306 198.4 13.912C198.94 15.3339 199.213 17.2339 199.213 19.5455Z" fill="#006DB7"/>
<path fill-rule="evenodd" clip-rule="evenodd" d="M264.505 15.0775C264.156 14.2379 263.552 13.6938 262.618 13.3729C261.648 13.065 259.945 12.8859 256.967 12.8433C253.988 12.8859 252.285 13.065 251.315 13.3729C250.381 13.6938 249.775 14.2379 249.428 15.0775C249.15 15.7208 248.837 17.2869 248.837 19.5455C248.837 21.804 249.15 23.3702 249.428 24.0135C249.775 24.8531 250.381 25.3967 251.315 25.718C252.285 26.027 253.988 26.2051 256.967 26.2477C259.945 26.2051 261.648 26.027 262.618 25.718C263.552 25.3967 264.156 24.8531 264.505 24.0135C264.783 23.3702 265.097 21.804 265.097 19.5455C265.097 17.2869 264.783 15.7208 264.505 15.0775ZM269.245 19.5455C269.245 21.8561 268.972 23.7576 268.432 25.1789C267.887 26.6598 266.021 30 256.967 30C247.912 30 246.046 26.6598 245.501 25.1789C244.962 23.7576 244.688 21.8561 244.688 19.5455C244.688 17.2339 244.962 15.3339 245.501 13.912C246.046 12.4306 247.912 9.09094 256.967 9.09094C266.021 9.09094 267.887 12.4306 268.432 13.912C268.972 15.3339 269.245 17.2339 269.245 19.5455Z" fill="#EC1D24"/>
<path fill-rule="evenodd" clip-rule="evenodd" d="M170.723 14.0518C170.493 13.0698 170.075 12.2436 169.45 11.5267L169.445 11.5209C168.59 10.5713 167.498 9.94043 166.11 9.59121C164.826 9.25511 162.974 9.09094 160.372 9.09094C157.535 9.09094 155.609 9.31825 154.31 9.80637L154.309 9.80734C154.307 9.80783 154.305 9.80832 154.304 9.8088C153.231 10.1959 152.34 10.9142 151.682 11.8983C150.916 10.8671 149.963 10.1614 148.778 9.76315C147.432 9.31048 144.931 9.09094 141.772 9.09094C139.402 9.09094 137.774 9.25899 136.795 9.60432L136.786 9.60772C136.048 9.88603 135.342 10.3562 134.648 11.026V10.0507H131V29.0909H134.636V16.9971C134.636 13.8401 137.847 12.5933 141.092 12.5933H142.719C145.964 12.5933 149.208 13.8401 149.208 16.9971V29.0909H152.842V16.9971C152.842 13.8401 156.016 12.5933 159.261 12.5933H160.888C164.133 12.5933 167.386 13.8401 167.386 16.9971V29.0909H171.018V18.7063C171.018 16.3482 170.927 14.9125 170.723 14.0518ZM154.307 9.80734H154.309V9.80686C154.309 9.80686 154.308 9.80734 154.307 9.80734ZM154.311 9.80589C154.31 9.80637 154.309 9.80686 154.309 9.80686C154.309 9.80686 154.309 9.80637 154.309 9.80637L154.311 9.80589Z" fill="#006DB7"/>
<path fill-rule="evenodd" clip-rule="evenodd" d="M302.248 13.3729C303.217 13.0645 304.922 12.8859 307.9 12.8428C310.877 12.8859 312.581 13.0645 313.551 13.3729C314.485 13.6938 315.09 14.2379 315.439 15.0775C315.621 15.4981 315.817 16.3179 315.933 17.466H299.867C299.981 16.3179 300.179 15.4981 300.361 15.0775C300.709 14.2379 301.314 13.6938 302.248 13.3729ZM318.219 20.9664H320.137C320.162 20.5106 320.178 20.0394 320.178 19.5455C320.178 17.2339 319.906 15.3334 319.365 13.9115C318.819 12.4306 316.954 9.09094 307.9 9.09094C298.845 9.09094 296.98 12.4306 296.434 13.9115C295.894 15.3334 295.621 17.2339 295.621 19.5455C295.621 21.8561 295.894 23.7571 296.434 25.1789C296.98 26.6598 298.845 30 307.9 30C316.954 30 318.819 26.6598 319.365 25.1789C319.413 25.0505 319.458 24.9136 319.503 24.7772H314.981C314.631 25.1993 314.163 25.5078 313.551 25.718C312.581 26.0265 310.877 26.2051 307.9 26.2477C304.922 26.2051 303.217 26.0265 302.248 25.718C301.314 25.3967 300.709 24.8531 300.361 24.0135C300.147 23.518 299.912 22.4731 299.816 20.9877H318.219V20.9664Z" fill="#EC1D24"/>
<path fill-rule="evenodd" clip-rule="evenodd" d="M227.408 29.0909H231.046V9.09094H227.408V29.0909Z" fill="#006DB7"/>
<path fill-rule="evenodd" clip-rule="evenodd" d="M219.927 23.2824C219.578 24.0972 218.971 24.6248 218.035 24.9357C217.062 25.236 215.354 25.4088 212.368 25.4502C209.381 25.4088 208.205 25.236 207.233 24.9357C206.296 24.6248 205.689 24.0972 205.34 23.2824C205.121 22.789 204.878 21.7344 204.787 20.2327V17.6586C204.878 16.1574 205.121 15.1028 205.34 14.6095C205.689 13.7946 206.296 13.2671 207.233 12.9552C208.205 12.6563 209.381 12.483 212.368 12.4411C215.354 12.483 217.062 12.6563 218.035 12.9552C218.971 13.2671 219.578 13.7946 219.927 14.6095C220.205 15.2337 220.52 16.7542 220.52 18.9457C220.52 21.1376 220.205 22.6576 219.927 23.2824ZM223.864 13.4784C223.318 12.0412 221.447 8.79947 212.368 8.79947C208.892 8.79947 206.478 9.27598 204.787 9.94308V0H201.032V28.8604H204.787V27.9483C206.478 28.6149 208.892 29.0909 212.368 29.0909C221.447 29.0909 223.318 25.8507 223.864 24.4139C224.406 23.033 224.679 21.1886 224.679 18.9457C224.679 16.7022 224.406 14.8583 223.864 13.4784Z" fill="#006DB7"/>
</svg>
